<?xml version="1.0" encoding="UTF-8"?>
<!-- Generated by jsxcad -->
<!DOCTYPE svg PUBLIC "-//W3C//DTD SVG 1.1 Tiny//EN" "http://www.w3.org/Graphics/SVG/1.1/DTD/svg11-tiny.dtd">
<svg baseProfile="tiny" height="41.03350253807109mm" width="120.00000000000006mm" viewBox="-10.000000000000007 -20.35702199661592 120.00000000000006 41.03350253807109" version="1.1" stroke="black" stroke-width=".1" fill="none" xmlns="http://www.w3.org/2000/svg">
<path fill="#cfab7c" stroke="#cfab7c" d="M99.49350831161286 4.080934742790768 L99.49350831161286 9.733726620963356 L34.49350831161286 9.733726620963356 L34.49350831161286 4.080934742790768 z"/>
<path fill="#cfab7c" stroke="#cfab7c" d="M101.51427777504574 4.0084171443996 L101.51427777504574 9.661209022572189 L99.49350831161284 9.733726620963356 L99.49350831161284 4.0809347427907685 z"/>
<path fill="#cfab7c" stroke="#cfab7c" d="M103.47305252844818 3.6495421601338323 L103.47305252844818 9.30233403830642 L101.51427777504574 9.66120902257219 L101.51427777504574 4.008417144399603 z"/>
<path fill="#cfab7c" stroke="#cfab7c" d="M105.28964010326959 3.0190021740153226 L105.28964010326959 8.671794052187913 L103.47305252844818 9.302334038306427 L103.47305252844818 3.6495421601338363 z"/>
<path fill="#cfab7c" stroke="#cfab7c" d="M106.88966919075683 2.1426115671610617 L106.88966919075685 7.795403445333649 L105.2896401032696 8.671794052187908 L105.2896401032696 3.01900217401532 z"/>
<path fill="#cfab7c" stroke="#cfab7c" d="M108.20763441207274 1.0562498739871937 L108.20763441207274 6.709041752159781 L106.88966919075683 7.795403445333649 L106.88966919075685 2.1426115671610613 z"/>
<path fill="#cfab7c" stroke="#cfab7c" d="M109.18957811620228 -0.19560713014566886 L109.1895781162023 5.457184748026918 L108.20763441207274 6.709041752159782 L108.20763441207274 1.0562498739871935 z"/>
<path fill="#cfab7c" stroke="#cfab7c" d="M109.79529941252493 -1.5617082724013722 L109.79529941252493 4.091083605771216 L109.18957811620228 5.457184748026919 L109.18957811620228 -0.19560713014566863 z"/>
<path fill="#cfab7c" stroke="#cfab7c" d="M109.99999999999999 -2.9861252115059207 L109.99999999999999 2.6666666666666674 L109.79529941252493 4.091083605771216 L109.79529941252493 -1.5617082724013722 z"/>
<path fill="#cfab7c" stroke="#cfab7c" d="M109.79529941252494 -4.410542150610449 L109.79529941252494 1.2422497275621391 L110 2.6666666666666674 L110 -2.9861252115059207 z"/>
<path fill="#cfab7c" stroke="#cfab7c" d="M109.18957811620231 -5.7766432928661535 L109.18957811620231 -0.12385141469356553 L109.79529941252494 1.2422497275621391 L109.79529941252494 -4.410542150610449 z"/>
<path fill="#cfab7c" stroke="#cfab7c" d="M108.20763441207276 -7.028500296999019 L108.20763441207276 -1.3757084188264306 L109.18957811620231 -0.12385141469356577 L109.18957811620231 -5.7766432928661535 z"/>
<path fill="#cfab7c" stroke="#cfab7c" d="M106.88966919075686 -8.11486199017289 L106.88966919075686 -2.462070112000302 L108.20763441207276 -1.3757084188264304 L108.20763441207276 -7.0285002969990185 z"/>
<path fill="#cfab7c" stroke="#cfab7c" d="M105.28964010326962 -8.99125259702715 L105.28964010326962 -3.338460718854562 L106.88966919075686 -2.462070112000302 L106.88966919075686 -8.11486199017289 z"/>
<path fill="#cfab7c" stroke="#cfab7c" d="M103.47305252844819 -9.621792583145668 L103.47305252844819 -3.9690007049730784 L105.2896401032696 -3.338460718854565 L105.2896401032696 -8.991252597027154 z"/>
<path fill="#cfab7c" stroke="#cfab7c" d="M101.51427777504576 -9.980667567411443 L101.51427777504576 -4.327875689238852 L103.47305252844819 -3.969000704973079 L103.47305252844819 -9.62179258314567 z"/>
<path fill="#cfab7c" stroke="#cfab7c" d="M99.49350831161286 -10.05318516580261 L99.49350831161286 -4.400393287630025 L101.51427777504576 -4.327875689238855 L101.51427777504576 -9.980667567411441 z"/>
<path fill="#cfab7c" stroke="#cfab7c" d="M34.49350831161287 -10.05318516580261 L34.49350831161287 -4.400393287630023 L99.49350831161287 -4.400393287630023 L99.49350831161287 -10.05318516580261 z"/>
<path fill="#cfab7c" stroke="#cfab7c" d="M32.493474677412785 -9.836376499320583 L32.493474677412785 -4.183584621147996 L34.493508311612864 -4.400393287630021 L34.493508311612864 -10.053185165802608 z"/>
<path fill="#cfab7c" stroke="#cfab7c" d="M30.596058484423654 -9.339117740245078 L30.596058484423654 -3.68632586207249 L32.493474677412785 -4.183584621147996 L32.493474677412785 -9.836376499320583 z"/>
<path fill="#cfab7c" stroke="#cfab7c" d="M28.87894017452337 -8.581766720598061 L28.87894017452337 -2.928974842425473 L30.59605848442365 -3.6863258620724872 L30.59605848442365 -9.339117740245076 z"/>
<path fill="#cfab7c" stroke="#cfab7c" d="M27.412418773072087 -7.595329480108854 L27.412418773072087 -1.9425376019362655 L28.87894017452337 -2.9289748424254722 L28.87894017452337 -8.581766720598061 z"/>
<path fill="#cfab7c" stroke="#cfab7c" d="M26.256533838554176 -6.420190875304535 L26.256533838554176 -0.7673989971319466 L27.412418773072087 -1.9425376019362655 L27.412418773072087 -7.595329480108854 z"/>
<path fill="#cfab7c" stroke="#cfab7c" d="M25.458607435999507 -5.1044612187387175 L25.458607435999507 0.5483306594338698 L26.256533838554176 -0.7673989971319468 L26.256533838554176 -6.4201908753045345 z"/>
<path fill="#cfab7c" stroke="#cfab7c" d="M25.051306766081044 -3.702006637142877 L25.051306766081044 1.950785241029711 L25.458607435999507 0.5483306594338697 L25.458607435999507 -5.104461218738718 z"/>
<path fill="#cfab7c" stroke="#cfab7c" d="M25.051306766081048 -2.2702437858689644 L25.051306766081048 3.382548092303624 L25.051306766081048 1.9507852410297113 L25.051306766081048 -3.702006637142877 z"/>
<path fill="#cfab7c" stroke="#cfab7c" d="M25.45860743599951 -0.8677892042731256 L25.458607435999507 4.785002673899462 L25.051306766081048 3.382548092303624 L25.051306766081048 -2.270243785868964 z"/>
<path fill="#cfab7c" stroke="#cfab7c" d="M26.256533838554176 0.4479404522926894 L26.256533838554173 6.100732330465277 L25.45860743599951 4.785002673899463 L25.45860743599951 -0.8677892042731254 z"/>
<path fill="#cfab7c" stroke="#cfab7c" d="M27.412418773072087 1.6230790570970082 L27.412418773072087 7.275870935269597 L26.256533838554176 6.100732330465277 L26.256533838554176 0.4479404522926894 z"/>
<path fill="#cfab7c" stroke="#cfab7c" d="M28.878940174523365 2.6095162975862154 L28.878940174523365 8.262308175758804 L27.412418773072083 7.275870935269596 L27.412418773072087 1.6230790570970084 z"/>
<path fill="#cfab7c" stroke="#cfab7c" d="M30.596058484423644 3.366867317233232 L30.596058484423644 9.019659195405817 L28.878940174523358 8.262308175758799 L28.878940174523358 2.6095162975862136 z"/>
<path fill="#cfab7c" stroke="#cfab7c" d="M32.49347467741278 3.8641260763087413 L32.49347467741278 9.516917954481329 L30.596058484423644 9.019659195405819 L30.596058484423644 3.3668673172332313 z"/>
<path fill="#cfab7c" stroke="#cfab7c" d="M34.49350831161285 4.080934742790767 L34.49350831161285 9.733726620963354 L32.49347467741278 9.516917954481329 L32.49347467741278 3.864126076308741 z"/>
<path fill="#cfab7c" stroke="#cfab7c" d="M99.49350831161286 4.080934742790767 L34.49350831161286 4.080934742790767 L32.493474677412785 3.8641260763087413 L30.596058484423647 3.366867317233232 L28.878940174523365 2.6095162975862154 L27.412418773072087 1.6230790570970082 L26.256533838554176 0.44794045229268936 L25.45860743599951 -0.8677892042731254 L25.051306766081048 -2.270243785868964 L25.051306766081048 -3.702006637142877 L25.45860743599951 -5.104461218738718 L26.25653383855418 -6.420190875304535 L27.41241877307209 -7.595329480108854 L28.878940174523372 -8.58176672059806 L30.596058484423658 -9.339117740245076 L32.49347467741279 -9.836376499320583 L34.49350831161287 -10.053185165802608 L99.49350831161287 -10.053185165802608 L101.51427777504577 -9.980667567411437 L103.4730525284482 -9.621792583145666 L105.28964010326962 -8.99125259702715 L106.88966919075686 -8.114861990172889 L108.20763441207276 -7.0285002969990185 L109.18957811620231 -5.7766432928661535 L109.79529941252494 -4.410542150610449 L110 -2.9861252115059207 L109.79529941252494 -1.5617082724013722 L109.1895781162023 -0.1956071301456687 L108.20763441207275 1.0562498739871935 L106.88966919075685 2.1426115671610613 L105.2896401032696 3.01900217401532 L103.47305252844819 3.6495421601338305 L101.51427777504576 4.0084171443995995 z"/>
<path fill="#cfab7c" stroke="#cfab7c" d="M99.49350831161286 9.733726620963354 L101.51427777504576 9.661209022572187 L103.47305252844819 9.302334038306418 L105.2896401032696 8.671794052187908 L106.88966919075685 7.79540344533365 L108.20763441207275 6.709041752159782 L109.1895781162023 5.457184748026918 L109.79529941252494 4.091083605771216 L110 2.6666666666666674 L109.79529941252494 1.2422497275621391 L109.18957811620231 -0.12385141469356559 L108.20763441207276 -1.3757084188264306 L106.88966919075686 -2.462070112000302 L105.28964010326962 -3.3384607188545634 L103.4730525284482 -3.9690007049730776 L101.51427777504577 -4.32787568923885 L99.49350831161287 -4.40039328763002 L34.49350831161287 -4.40039328763002 L32.49347467741279 -4.183584621147994 L30.596058484423658 -3.686325862072488 L28.878940174523372 -2.9289748424254727 L27.41241877307209 -1.9425376019362655 L26.25653383855418 -0.7673989971319466 L25.45860743599951 0.5483306594338698 L25.051306766081048 1.950785241029711 L25.051306766081048 3.3825480923036237 L25.45860743599951 4.785002673899463 L26.256533838554176 6.100732330465277 L27.412418773072087 7.275870935269596 L28.878940174523365 8.262308175758804 L30.596058484423647 9.01965919540582 L32.493474677412785 9.516917954481329 L34.49350831161286 9.733726620963354 z"/>
<path fill="#cfab7c" stroke="#cfab7c" d="M10 3.0285956006768195 L8.499999999999988 3.0285956006768195 L6.3967923372479785 3.0285956006768195 L4.093018265685981 3.0285956006768195 L1.8666461895558828 3.0285956006768195 L-0.07133036763153083 3.0285956006768195 L-1.6061742127941259 3.0285956006768195 L-2.707625556916436 3.0285956006768195 L-3.4 3.0285956006768195 L-3.4000000000000012 3.0285956006768195 L-10 3.0285956006768195 L-10 4.894016920473773 L-10 8.681387478849407 L-3.4000000000000012 8.681387478849407 L-3.4 8.681387478849407 L-2.707625556916436 8.681387478849407 L-1.6061742127941259 8.681387478849407 L-0.07133036763153083 8.681387478849407 L1.8666461895558828 8.681387478849407 L4.093018265685981 8.681387478849407 L6.3967923372479785 8.681387478849407 L8.499999999999988 8.681387478849407 L10 8.681387478849407 z"/>
<path fill="#cfab7c" stroke="#cfab7c" d="M10 -8.825054032565319 L10 -4.398296779239116 L10 -3.2284606849418935 L10 -3.3480541455160724 L10 -9.000846023688661 L10 -8.881252563114481 z"/>
<path fill="#cfab7c" stroke="#cfab7c" d="M10 8.56179401827523 L10 8.505595487726067 L10 4.07883823439982 L10 2.909002140102642 L10 3.0285956006768204 L10 8.681387478849409 z"/>
<path fill="#cfab7c" stroke="#cfab7c" d="M-10 -9.000846023688663 L-3.399999999999998 -9.000846023688663 L-2.7076255569164287 -9.000846023688663 L-1.6061742127941172 -9.000846023688663 L-0.07133036763151922 -9.000846023688663 L0.5357816477263377 -9.000846023688663 L3.4 -9.000846023688663 L3.8873378227339197 -9.000846023688663 L5.063812923712094 -9.000846023688663 L6.651816939412197 -9.000846023688663 L8.500000000000002 -9.000846023688663 L10 -9.000846023688663 L10 -3.3480541455160733 L8.500000000000002 -3.3480541455160733 L6.651816939412197 -3.3480541455160733 L5.063812923712094 -3.3480541455160733 L3.8873378227339197 -3.3480541455160733 L3.4 -3.3480541455160733 L0.5357816477263377 -3.3480541455160733 L-0.07133036763151922 -3.3480541455160733 L-1.6061742127941172 -3.3480541455160733 L-2.7076255569164287 -3.3480541455160733 L-3.399999999999998 -3.3480541455160733 L-10 -3.3480541455160733 L-10 -5.213475465313027 z"/>
<path fill="#cfab7c" stroke="#cfab7c" d="M-10 -15.02368866328257 L-10 -20.676480541455156 L-10 -9.000846023688661 L-10 -5.213475465313027 L-10 -3.3480541455160724 z"/>
<path fill="#cfab7c" stroke="#cfab7c" d="M-10 3.0285956006768204 L-10 14.704230118443316 L-10 20.357021996615906 L-10 8.681387478849409 L-10 4.894016920473774 z"/>
<path fill="#cfab7c" stroke="#cfab7c" d="M16.7868872535455 1.3282653740532824 L16.7868872535455 -4.324526504119305 L17 -2.9861252115059207 L17 2.6666666666666674 z"/>
<path fill="#cfab7c" stroke="#cfab7c" d="M16.158235377170563 0.056977110928625646 L16.158235377170563 -5.595814767243962 L16.7868872535455 -4.324526504119306 L16.7868872535455 1.3282653740532824 z"/>
<path fill="#cfab7c" stroke="#cfab7c" d="M15.145567600978255 -1.083450420756748 L15.145567600978255 -6.736242298929335 L16.158235377170563 -5.5958147672439615 L16.158235377170563 0.056977110928625535 z"/>
<path fill="#cfab7c" stroke="#cfab7c" d="M13.799663315799238 -2.0358314225534753 L13.799663315799238 -7.6886233007260625 L15.145567600978257 -6.7362422989293345 L15.145567600978255 -1.083450420756748 z"/>
<path fill="#cfab7c" stroke="#cfab7c" d="M12.188011782499244 -2.7524095342347352 L12.188011782499244 -8.405201412407326 L13.799663315799236 -7.688623300726066 L13.799663315799236 -2.0358314225534757 z"/>
<path fill="#cfab7c" stroke="#cfab7c" d="M10.391427938628674 -3.1972525371112166 L10.391427938628674 -8.850044415283802 L12.188011782499244 -8.405201412407324 L12.188011782499244 -2.752409534234738 z"/>
<path fill="#cfab7c" stroke="#cfab7c" d="M9.999999999999998 -4.398296779239118 L9.999999999999998 -8.825054032565319 L9.999999999999998 -8.881252563114481 L10.391427938628674 -8.8500444152838 L10.391427938628674 -3.197252537111217 L9.999999999999998 -3.228460684941898 z"/>
<path fill="#cfab7c" stroke="#cfab7c" d="M9.999999999999998 4.078838234399819 L9.999999999999998 8.505595487726067 L9.999999999999998 8.56179401827523 L10.391427938628658 8.530585870444549 L10.391427938628658 2.8777939922719633 L9.999999999999998 2.909002140102642 z"/>
<path fill="#cfab7c" stroke="#cfab7c" d="M12.188011782499228 8.085742867568076 L12.188011782499228 2.4329509893954877 L10.39142793862866 2.877793992271963 L10.39142793862866 8.53058587044455 z"/>
<path fill="#cfab7c" stroke="#cfab7c" d="M13.79966331579922 7.36916475588682 L13.79966331579922 1.7163728777142317 L12.188011782499226 2.4329509893954886 L12.188011782499226 8.085742867568076 z"/>
<path fill="#cfab7c" stroke="#cfab7c" d="M16.158235377170552 5.276356222404722 L16.158235377170552 -0.376435655767866 L15.145567600978241 0.7639918759175065 L15.145567600978241 6.416783754090095 z"/>
<path fill="#cfab7c" stroke="#cfab7c" d="M15.145567600978241 6.416783754090094 L15.145567600978241 0.7639918759175066 L13.79966331579922 1.7163728777142309 L13.79966331579922 7.3691647558868185 z"/>
<path fill="#cfab7c" stroke="#cfab7c" d="M16.786887253545494 4.005067959280065 L16.786887253545494 -1.6477239188925235 L16.158235377170552 -0.37643565576786603 L16.158235377170552 5.276356222404722 z"/>
<path fill="#cfab7c" stroke="#cfab7c" d="M16.999999999999996 2.6666666666666674 L16.999999999999996 -2.9861252115059207 L16.786887253545494 -1.6477239188925235 L16.786887253545494 4.005067959280065 z"/>
<path fill="#cfab7c" stroke="#cfab7c" d="M10 20.357021996615906 L-10 20.357021996615906 L-10 14.704230118443318 L10 14.704230118443318 z"/>
<path fill="#cfab7c" stroke="#cfab7c" d="M40.2896401032696 8.67179405218791 L9.999999999999998 20.357021996615906 L9.999999999999998 14.70423011844332 L40.2896401032696 3.019002174015323 z"/>
<path fill="#cfab7c" stroke="#cfab7c" d="M41.88966919075685 7.795403445333649 L40.289640103269605 8.671794052187908 L40.289640103269605 3.01900217401532 L41.88966919075684 2.1426115671610617 z"/>
<path fill="#cfab7c" stroke="#cfab7c" d="M43.20763441207274 6.709041752159781 L41.88966919075684 7.795403445333649 L41.88966919075685 2.1426115671610613 L43.20763441207274 1.0562498739871937 z"/>
<path fill="#cfab7c" stroke="#cfab7c" d="M44.1895781162023 5.457184748026918 L43.20763441207274 6.709041752159782 L43.20763441207274 1.0562498739871935 L44.18957811620229 -0.19560713014566886 z"/>
<path fill="#cfab7c" stroke="#cfab7c" d="M44.79529941252493 4.091083605771216 L44.18957811620229 5.457184748026919 L44.18957811620229 -0.19560713014566863 L44.79529941252493 -1.5617082724013722 z"/>
<path fill="#cfab7c" stroke="#cfab7c" d="M44.99999999999999 2.6666666666666674 L44.79529941252493 4.091083605771216 L44.79529941252493 -1.5617082724013722 L44.99999999999999 -2.9861252115059207 z"/>
<path fill="#cfab7c" stroke="#cfab7c" d="M44.79529941252494 1.2422497275621391 L45 2.6666666666666674 L45 -2.9861252115059207 L44.79529941252494 -4.410542150610449 z"/>
<path fill="#cfab7c" stroke="#cfab7c" d="M44.189578116202306 -0.12385141469356555 L44.79529941252494 1.2422497275621391 L44.79529941252494 -4.410542150610448 L44.189578116202306 -5.7766432928661535 z"/>
<path fill="#cfab7c" stroke="#cfab7c" d="M43.207634412072764 -1.3757084188264304 L44.189578116202306 -0.12385141469356549 L44.189578116202306 -5.7766432928661535 L43.207634412072764 -7.028500296999018 z"/>
<path fill="#cfab7c" stroke="#cfab7c" d="M41.88966919075686 -2.462070112000302 L43.207634412072764 -1.3757084188264304 L43.207634412072764 -7.0285002969990185 L41.88966919075686 -8.11486199017289 z"/>
<path fill="#cfab7c" stroke="#cfab7c" d="M40.289640103269626 -3.3384607188545616 L41.88966919075686 -2.4620701120003026 L41.88966919075686 -8.114861990172889 L40.289640103269626 -8.991252597027152 z"/>
<path fill="#cfab7c" stroke="#cfab7c" d="M9.999999999999998 -15.02368866328257 L40.28964010326962 -3.3384607188545656 L40.28964010326962 -8.991252597027154 L9.999999999999998 -20.67648054145516 z"/>
<path fill="#cfab7c" stroke="#cfab7c" d="M-10 -15.023688663282572 L10 -15.023688663282572 L10 -20.67648054145516 L-10 -20.67648054145516 z"/>
<path fill="#cfab7c" stroke="#cfab7c" d="M10 3.02859560067682 L10 2.9090021401026416 L10.39142793862866 2.877793992271963 L12.18801178249923 2.4329509893954873 L13.799663315799222 1.716372877714231 L15.145567600978243 0.7639918759175066 L16.158235377170556 -0.3764356557678661 L16.786887253545498 -1.6477239188925235 L17 -2.9861252115059207 L16.7868872535455 -4.324526504119306 L16.158235377170563 -5.595814767243962 L15.145567600978255 -6.736242298929336 L13.799663315799236 -7.688623300726063 L12.188011782499245 -8.40520141240732 L10.391427938628674 -8.850044415283799 L10 -8.881252563114481 L10 -9.000846023688661 L8.500000000000002 -9.000846023688661 L6.651816939412197 -9.000846023688661 L5.063812923712094 -9.000846023688661 L3.8873378227339197 -9.000846023688661 L3.4 -9.000846023688661 L0.5357816477263377 -9.000846023688661 L-0.07133036763151922 -9.000846023688661 L-1.6061742127941172 -9.000846023688661 L-2.7076255569164287 -9.000846023688661 L-3.399999999999998 -9.000846023688661 L-10 -9.000846023688661 L-10 -20.676480541455152 L10 -20.676480541455152 L40.289640103269626 -8.99125259702715 L41.88966919075686 -8.11486199017289 L43.207634412072764 -7.0285002969990185 L44.189578116202306 -5.7766432928661535 L44.79529941252494 -4.410542150610448 L45 -2.9861252115059207 L44.79529941252494 -1.5617082724013722 L44.1895781162023 -0.1956071301456687 L43.20763441207275 1.0562498739871935 L41.88966919075685 2.1426115671610613 L40.289640103269605 3.01900217401532 L10 14.704230118443316 L-10 14.704230118443316 L-10 3.02859560067682 L-3.4000000000000012 3.02859560067682 L-3.4 3.02859560067682 L-2.707625556916436 3.02859560067682 L-1.6061742127941259 3.02859560067682 L-0.07133036763153083 3.02859560067682 L1.8666461895558828 3.02859560067682 L4.093018265685981 3.02859560067682 L6.3967923372479785 3.02859560067682 L8.499999999999988 3.02859560067682 z"/>
<path fill="#cfab7c" stroke="#cfab7c" d="M-1.6061742127941259 8.681387478849407 L-2.707625556916436 8.681387478849407 L-3.4 8.681387478849407 L-3.4000000000000012 8.681387478849407 L-10 8.681387478849407 L-10 20.357021996615902 L10 20.357021996615902 L40.289640103269605 8.671794052187908 L41.88966919075685 7.795403445333649 L43.20763441207275 6.709041752159782 L44.1895781162023 5.457184748026919 L44.79529941252494 4.091083605771216 L45 2.6666666666666674 L44.79529941252494 1.2422497275621391 L44.189578116202306 -0.12385141469356559 L43.207634412072764 -1.3757084188264306 L41.88966919075686 -2.462070112000302 L40.289640103269626 -3.3384607188545634 L10 -15.023688663282568 L-10 -15.023688663282568 L-10 -3.348054145516072 L-3.399999999999998 -3.348054145516072 L-2.7076255569164287 -3.348054145516072 L-1.6061742127941172 -3.348054145516072 L-0.07133036763151922 -3.348054145516072 L0.5357816477263377 -3.348054145516072 L3.4 -3.348054145516072 L3.8873378227339197 -3.348054145516072 L5.063812923712094 -3.348054145516072 L6.651816939412197 -3.348054145516072 L8.500000000000002 -3.348054145516072 L10 -3.348054145516072 L10 -3.228460684941893 L10.391427938628674 -3.197252537111212 L12.188011782499245 -2.7524095342347334 L13.799663315799236 -2.0358314225534753 L15.145567600978255 -1.0834504207567481 L16.158235377170563 0.05697711092862551 L16.7868872535455 1.3282653740532824 L17 2.6666666666666674 L16.786887253545498 4.005067959280065 L16.158235377170556 5.276356222404722 L15.145567600978243 6.416783754090095 L13.799663315799222 7.369164755886819 L12.18801178249923 8.085742867568074 L10.39142793862866 8.53058587044455 L10 8.56179401827523 L10 8.681387478849407 L8.499999999999988 8.681387478849407 L6.3967923372479785 8.681387478849407 L4.093018265685981 8.681387478849407 L1.8666461895558828 8.681387478849407 L-0.07133036763153083 8.681387478849407 z"/>
</svg>