<?xml version="1.0" encoding="UTF-8"?>
<!-- Generated by jsxcad -->
<!DOCTYPE svg PUBLIC "-//W3C//DTD SVG 1.1 Tiny//EN" "http://www.w3.org/Graphics/SVG/1.1/DTD/svg11-tiny.dtd">
<svg baseProfile="tiny" height="220.0000000000001mm" width="50.00000000000003mm" viewBox="-25.000000000000014 -110.00000000000006 50.00000000000003 220.0000000000001" version="1.1" stroke="black" stroke-width=".1" fill="none" xmlns="http://www.w3.org/2000/svg">
<path fill="#cfab7c" stroke="#cfab7c" d="M-9.976190476190474 -99.5 L-9.976190476190474 -99.5 L-9.976190476190474 -34.5 L-9.976190476190474 -34.5 z"/>
<path fill="#cfab7c" stroke="#cfab7c" d="M-9.875 -101.51612903225806 L-9.875 -101.51612903225806 L-9.976190476190474 -99.5 L-9.976190476190474 -99.5 z"/>
<path fill="#cfab7c" stroke="#cfab7c" d="M-9.375 -103.4782608695652 L-9.375 -103.4782608695652 L-9.875 -101.51612903225806 L-9.875 -101.51612903225806 z"/>
<path fill="#cfab7c" stroke="#cfab7c" d="M-8.483870967741934 -105.29411764705881 L-8.483870967741934 -105.29411764705881 L-9.375 -103.4782608695652 L-9.375 -103.4782608695652 z"/>
<path fill="#cfab7c" stroke="#cfab7c" d="M-7.241379310344827 -106.89655172413792 L-7.241379310344827 -106.89655172413792 L-8.483870967741934 -105.29411764705881 L-8.483870967741934 -105.29411764705881 z"/>
<path fill="#cfab7c" stroke="#cfab7c" d="M-5.7142857142857135 -108.21428571428571 L-5.7142857142857135 -108.21428571428571 L-7.241379310344827 -106.89655172413792 L-7.241379310344827 -106.89655172413792 z"/>
<path fill="#cfab7c" stroke="#cfab7c" d="M-3.939393939393939 -109.18918918918918 L-3.939393939393939 -109.18918918918918 L-5.7142857142857135 -108.21428571428571 L-5.7142857142857135 -108.21428571428571 z"/>
<path fill="#cfab7c" stroke="#cfab7c" d="M-2.023255813953488 -109.78787878787878 L-2.023255813953488 -109.78787878787878 L-3.939393939393939 -109.18918918918918 L-3.939393939393939 -109.18918918918918 z"/>
<path fill="#cfab7c" stroke="#cfab7c" d="M0 -110 L0 -110 L-2.023255813953488 -109.78787878787878 L-2.023255813953488 -109.78787878787878 z"/>
<path fill="#cfab7c" stroke="#cfab7c" d="M2.023255813953488 -109.78787878787878 L2.023255813953488 -109.78787878787878 L0 -110 L0 -110 z"/>
<path fill="#cfab7c" stroke="#cfab7c" d="M3.939393939393939 -109.18918918918918 L3.939393939393939 -109.18918918918918 L2.023255813953488 -109.78787878787878 L2.023255813953488 -109.78787878787878 z"/>
<path fill="#cfab7c" stroke="#cfab7c" d="M5.7142857142857135 -108.21428571428571 L5.7142857142857135 -108.21428571428571 L3.939393939393939 -109.18918918918918 L3.939393939393939 -109.18918918918918 z"/>
<path fill="#cfab7c" stroke="#cfab7c" d="M7.241379310344827 -106.89655172413792 L7.241379310344827 -106.89655172413792 L5.7142857142857135 -108.21428571428571 L5.7142857142857135 -108.21428571428571 z"/>
<path fill="#cfab7c" stroke="#cfab7c" d="M8.483870967741934 -105.29411764705881 L8.483870967741934 -105.29411764705881 L7.241379310344827 -106.89655172413792 L7.241379310344827 -106.89655172413792 z"/>
<path fill="#cfab7c" stroke="#cfab7c" d="M9.375 -103.4782608695652 L9.375 -103.4782608695652 L8.483870967741934 -105.29411764705881 L8.483870967741934 -105.29411764705881 z"/>
<path fill="#cfab7c" stroke="#cfab7c" d="M9.875 -101.51612903225806 L9.875 -101.51612903225806 L9.375 -103.4782608695652 L9.375 -103.4782608695652 z"/>
<path fill="#cfab7c" stroke="#cfab7c" d="M9.976190476190474 -99.5 L9.976190476190474 -99.5 L9.875 -101.51612903225806 L9.875 -101.51612903225806 z"/>
<path fill="#cfab7c" stroke="#cfab7c" d="M9.976190476190474 -34.5 L9.976190476190474 -34.5 L9.976190476190474 -99.5 L9.976190476190474 -99.5 z"/>
<path fill="#cfab7c" stroke="#cfab7c" d="M9.677419354838708 -32.5 L9.677419354838708 -32.5 L9.976190476190474 -34.5 L9.976190476190474 -34.5 z"/>
<path fill="#cfab7c" stroke="#cfab7c" d="M8.973684210526315 -30.599999999999998 L8.973684210526315 -30.599999999999998 L9.677419354838708 -32.5 L9.677419354838708 -32.5 z"/>
<path fill="#cfab7c" stroke="#cfab7c" d="M7.916666666666666 -28.888888888888886 L7.916666666666666 -28.888888888888886 L8.973684210526315 -30.599999999999998 L8.973684210526315 -30.599999999999998 z"/>
<path fill="#cfab7c" stroke="#cfab7c" d="M6.521739130434782 -27.413793103448274 L6.521739130434782 -27.413793103448274 L7.916666666666666 -28.888888888888886 L7.916666666666666 -28.888888888888886 z"/>
<path fill="#cfab7c" stroke="#cfab7c" d="M4.848484848484848 -26.25 L4.848484848484848 -26.25 L6.521739130434782 -27.413793103448274 L6.521739130434782 -27.413793103448274 z"/>
<path fill="#cfab7c" stroke="#cfab7c" d="M3 -25.454545454545453 L3 -25.454545454545453 L4.848484848484848 -26.25 L4.848484848484848 -26.25 z"/>
<path fill="#cfab7c" stroke="#cfab7c" d="M1.0212765957446808 -25.06060606060606 L1.0212765957446808 -25.06060606060606 L3 -25.454545454545453 L3 -25.454545454545453 z"/>
<path fill="#cfab7c" stroke="#cfab7c" d="M-1.0212765957446808 -25.06060606060606 L-1.0212765957446808 -25.06060606060606 L1.0212765957446808 -25.06060606060606 L1.0212765957446808 -25.06060606060606 z"/>
<path fill="#cfab7c" stroke="#cfab7c" d="M-3 -25.454545454545453 L-3 -25.454545454545453 L-1.0212765957446808 -25.06060606060606 L-1.0212765957446808 -25.06060606060606 z"/>
<path fill="#cfab7c" stroke="#cfab7c" d="M-4.848484848484848 -26.25 L-4.848484848484848 -26.25 L-3 -25.454545454545453 L-3 -25.454545454545453 z"/>
<path fill="#cfab7c" stroke="#cfab7c" d="M-6.521739130434782 -27.413793103448274 L-6.521739130434782 -27.413793103448274 L-4.848484848484848 -26.25 L-4.848484848484848 -26.25 z"/>
<path fill="#cfab7c" stroke="#cfab7c" d="M-7.916666666666666 -28.888888888888886 L-7.916666666666666 -28.888888888888886 L-6.521739130434782 -27.413793103448274 L-6.521739130434782 -27.413793103448274 z"/>
<path fill="#cfab7c" stroke="#cfab7c" d="M-8.973684210526315 -30.599999999999998 L-8.973684210526315 -30.599999999999998 L-7.916666666666666 -28.888888888888886 L-7.916666666666666 -28.888888888888886 z"/>
<path fill="#cfab7c" stroke="#cfab7c" d="M-9.677419354838708 -32.5 L-9.677419354838708 -32.5 L-8.973684210526315 -30.599999999999998 L-8.973684210526315 -30.599999999999998 z"/>
<path fill="#cfab7c" stroke="#cfab7c" d="M-9.976190476190474 -34.5 L-9.976190476190474 -34.5 L-9.677419354838708 -32.5 L-9.677419354838708 -32.5 z"/>
<path fill="#cfab7c" stroke="#cfab7c" d="M-9.976190476190474 -99.5 L-9.976190476190474 -34.5 L-9.677419354838708 -32.5 L-8.973684210526315 -30.599999999999998 L-7.916666666666666 -28.888888888888886 L-6.521739130434782 -27.413793103448274 L-4.848484848484848 -26.25 L-3 -25.454545454545453 L-1.0212765957446808 -25.06060606060606 L1.0212765957446808 -25.06060606060606 L3 -25.454545454545453 L4.848484848484848 -26.25 L6.521739130434782 -27.413793103448274 L7.916666666666666 -28.888888888888886 L8.973684210526315 -30.599999999999998 L9.677419354838708 -32.5 L9.976190476190474 -34.5 L9.976190476190474 -99.5 L9.875 -101.51612903225806 L9.375 -103.4782608695652 L8.483870967741934 -105.29411764705881 L7.241379310344827 -106.89655172413792 L5.7142857142857135 -108.21428571428571 L3.939393939393939 -109.18918918918918 L2.023255813953488 -109.78787878787878 L0 -110 L-2.023255813953488 -109.78787878787878 L-3.939393939393939 -109.18918918918918 L-5.7142857142857135 -108.21428571428571 L-7.241379310344827 -106.89655172413792 L-8.483870967741934 -105.29411764705881 L-9.375 -103.4782608695652 L-9.875 -101.51612903225806 z"/>
<path fill="#cfab7c" stroke="#cfab7c" d="M-9.976190476190474 -99.5 L-9.875 -101.51612903225806 L-9.375 -103.4782608695652 L-8.483870967741934 -105.29411764705881 L-7.241379310344827 -106.89655172413792 L-5.7142857142857135 -108.21428571428571 L-3.939393939393939 -109.18918918918918 L-2.023255813953488 -109.78787878787878 L0 -110 L2.023255813953488 -109.78787878787878 L3.939393939393939 -109.18918918918918 L5.7142857142857135 -108.21428571428571 L7.241379310344827 -106.89655172413792 L8.483870967741934 -105.29411764705881 L9.375 -103.4782608695652 L9.875 -101.51612903225806 L9.976190476190474 -99.5 L9.976190476190474 -34.5 L9.677419354838708 -32.5 L8.973684210526315 -30.599999999999998 L7.916666666666666 -28.888888888888886 L6.521739130434782 -27.413793103448274 L4.848484848484848 -26.25 L3 -25.454545454545453 L1.0212765957446808 -25.06060606060606 L-1.0212765957446808 -25.06060606060606 L-3 -25.454545454545453 L-4.848484848484848 -26.25 L-6.521739130434782 -27.413793103448274 L-7.916666666666666 -28.888888888888886 L-8.973684210526315 -30.599999999999998 L-9.677419354838708 -32.5 L-9.976190476190474 -34.5 z"/>
<path fill="#cfab7c" stroke="#cfab7c" d="M1.8888888888888886 -16.78205128205128 L1.8888888888888886 -16.78205128205128 L3.695652173913043 -16.15 L3.695652173913043 -16.15 z"/>
<path fill="#cfab7c" stroke="#cfab7c" d="M3.695652173913043 -16.15 L3.695652173913043 -16.15 L5.292452830188679 -15.152173913043477 L5.292452830188679 -15.152173913043477 z"/>
<path fill="#cfab7c" stroke="#cfab7c" d="M5.292452830188679 -15.152173913043477 L5.292452830188679 -15.152173913043477 L6.652173913043478 -13.792452830188678 L6.652173913043478 -13.792452830188678 z"/>
<path fill="#cfab7c" stroke="#cfab7c" d="M6.652173913043478 -13.792452830188678 L6.652173913043478 -13.792452830188678 L7.649999999999999 -12.195652173913043 L7.649999999999999 -12.195652173913043 z"/>
<path fill="#cfab7c" stroke="#cfab7c" d="M7.649999999999999 -12.195652173913043 L7.649999999999999 -12.195652173913043 L8.282051282051281 -10.388888888888888 L8.282051282051281 -10.388888888888888 z"/>
<path fill="#cfab7c" stroke="#cfab7c" d="M0 -17 L0 -17 L1.8888888888888886 -16.78205128205128 L1.8888888888888886 -16.78205128205128 z"/>
<path fill="#cfab7c" stroke="#cfab7c" d="M-1.8888888888888886 -16.78205128205128 L-1.8888888888888886 -16.78205128205128 L0 -17 L0 -17 z"/>
<path fill="#cfab7c" stroke="#cfab7c" d="M-25 10 L-25 10 L-8.5 10 L-8.5 10 z"/>
<path fill="#cfab7c" stroke="#cfab7c" d="M8.5 10 L25 10 L25 10 L8.5 10 z"/>
<path fill="#cfab7c" stroke="#cfab7c" d="M-6.652173913043478 -13.792452830188678 L-6.652173913043478 -13.792452830188678 L-5.292452830188679 -15.152173913043477 L-5.292452830188679 -15.152173913043477 z"/>
<path fill="#cfab7c" stroke="#cfab7c" d="M-7.649999999999999 -12.195652173913043 L-7.649999999999999 -12.195652173913043 L-6.652173913043478 -13.792452830188678 L-6.652173913043478 -13.792452830188678 z"/>
<path fill="#cfab7c" stroke="#cfab7c" d="M-8.282051282051281 -10.388888888888888 L-8.282051282051281 -10.388888888888888 L-7.649999999999999 -12.195652173913043 L-7.649999999999999 -12.195652173913043 z"/>
<path fill="#cfab7c" stroke="#cfab7c" d="M-5.292452830188679 -15.152173913043477 L-5.292452830188679 -15.152173913043477 L-3.695652173913043 -16.15 L-3.695652173913043 -16.15 z"/>
<path fill="#cfab7c" stroke="#cfab7c" d="M-3.695652173913043 -16.15 L-3.695652173913043 -16.15 L-1.8888888888888886 -16.78205128205128 L-1.8888888888888886 -16.78205128205128 z"/>
<path fill="#cfab7c" stroke="#cfab7c" d="M-8.326923076923077 -10 L-8.326923076923077 -10 L-8.282051282051281 -10.388888888888888 L-8.282051282051281 -10.388888888888888 L-8.326923076923077 -10 z"/>
<path fill="#cfab7c" stroke="#cfab7c" d="M-8.5 10 L-8.5 10 L-8.5 -10 L-8.5 -10 L-8.5 10 z"/>
<path fill="#cfab7c" stroke="#cfab7c" d="M8.5 -10 L8.326923076923077 -10 L8.326923076923077 -10 L8.5 -10 z"/>
<path fill="#cfab7c" stroke="#cfab7c" d="M-8.5 -10 L-8.5 -10 L-8.326923076923077 -10 L-8.326923076923077 -10 z"/>
<path fill="#cfab7c" stroke="#cfab7c" d="M8.5 1.5967857142857136 L8.5 -10 L8.5 -10 L8.5 10 L8.5 10 z"/>
<path fill="#cfab7c" stroke="#cfab7c" d="M-25 -10 L-25 10 L-25 10 L-25 -10 z"/>
<path fill="#cfab7c" stroke="#cfab7c" d="M-8.483870967741934 -40.29411764705882 L-25 -10 L-25 -10 L-8.483870967741934 -40.29411764705882 z"/>
<path fill="#cfab7c" stroke="#cfab7c" d="M-7.241379310344827 -41.89655172413793 L-8.483870967741934 -40.29411764705882 L-8.483870967741934 -40.29411764705882 L-7.241379310344827 -41.89655172413793 z"/>
<path fill="#cfab7c" stroke="#cfab7c" d="M-5.7142857142857135 -43.21428571428571 L-7.241379310344827 -41.89655172413793 L-7.241379310344827 -41.89655172413793 L-5.7142857142857135 -43.21428571428571 z"/>
<path fill="#cfab7c" stroke="#cfab7c" d="M-3.939393939393939 -44.189189189189186 L-5.7142857142857135 -43.21428571428571 L-5.7142857142857135 -43.21428571428571 L-3.939393939393939 -44.189189189189186 z"/>
<path fill="#cfab7c" stroke="#cfab7c" d="M-2.023255813953488 -44.78787878787878 L-3.939393939393939 -44.189189189189186 L-3.939393939393939 -44.189189189189186 L-2.023255813953488 -44.78787878787878 z"/>
<path fill="#cfab7c" stroke="#cfab7c" d="M0 -45 L-2.023255813953488 -44.78787878787878 L-2.023255813953488 -44.78787878787878 L0 -45 z"/>
<path fill="#cfab7c" stroke="#cfab7c" d="M2.023255813953488 -44.78787878787878 L0 -45 L0 -45 L2.023255813953488 -44.78787878787878 z"/>
<path fill="#cfab7c" stroke="#cfab7c" d="M3.939393939393939 -44.189189189189186 L2.023255813953488 -44.78787878787878 L2.023255813953488 -44.78787878787878 L3.939393939393939 -44.189189189189186 z"/>
<path fill="#cfab7c" stroke="#cfab7c" d="M5.7142857142857135 -43.21428571428571 L3.939393939393939 -44.189189189189186 L3.939393939393939 -44.189189189189186 L5.7142857142857135 -43.21428571428571 z"/>
<path fill="#cfab7c" stroke="#cfab7c" d="M7.241379310344827 -41.89655172413793 L5.7142857142857135 -43.21428571428571 L5.7142857142857135 -43.21428571428571 L7.241379310344827 -41.89655172413793 z"/>
<path fill="#cfab7c" stroke="#cfab7c" d="M8.483870967741934 -40.29411764705882 L7.241379310344827 -41.89655172413793 L7.241379310344827 -41.89655172413793 L8.483870967741934 -40.29411764705882 z"/>
<path fill="#cfab7c" stroke="#cfab7c" d="M25 -10 L8.483870967741934 -40.29411764705882 L8.483870967741934 -40.29411764705882 L25 -10 z"/>
<path fill="#cfab7c" stroke="#cfab7c" d="M25 10 L25 -10 L25 -10 L25 10 z"/>
<path fill="#cfab7c" stroke="#cfab7c" d="M8.326923076923077 -10 L8.326923076923077 -10 L8.282051282051281 -10.388888888888888 L8.282051282051281 -10.388888888888888 L8.326923076923077 -10 z"/>
<path fill="#cfab7c" stroke="#cfab7c" d="M-8.5 -4.0790627740884595 L-8.5 -10 L-8.326923076923077 -10 L-8.282051282051281 -10.388888888888888 L-7.649999999999999 -12.195652173913043 L-6.652173913043478 -13.792452830188678 L-5.292452830188679 -15.152173913043477 L-3.695652173913043 -16.15 L-1.8888888888888886 -16.78205128205128 L0 -17 L1.8888888888888886 -16.78205128205128 L3.695652173913043 -16.15 L5.292452830188679 -15.152173913043477 L6.652173913043478 -13.792452830188678 L7.649999999999999 -12.195652173913043 L8.282051282051281 -10.388888888888888 L8.326923076923077 -10 L8.5 -10 L8.5 10 L25 10 L25 -10 L8.483870967741934 -40.29411764705882 L7.241379310344827 -41.89655172413793 L5.7142857142857135 -43.21428571428571 L3.939393939393939 -44.189189189189186 L2.023255813953488 -44.78787878787878 L0 -45 L-2.023255813953488 -44.78787878787878 L-3.939393939393939 -44.189189189189186 L-5.7142857142857135 -43.21428571428571 L-7.241379310344827 -41.89655172413793 L-8.483870967741934 -40.29411764705882 L-25 -10 L-25 10 L-8.5 10 z"/>
<path fill="#cfab7c" stroke="#cfab7c" d="M-8.5 -8.5 L-8.5 10 L-25 10 L-25 -10 L-8.483870967741934 -40.29411764705882 L-7.241379310344827 -41.89655172413793 L-5.7142857142857135 -43.21428571428571 L-3.939393939393939 -44.189189189189186 L-2.023255813953488 -44.78787878787878 L0 -45 L2.023255813953488 -44.78787878787878 L3.939393939393939 -44.189189189189186 L5.7142857142857135 -43.21428571428571 L7.241379310344827 -41.89655172413793 L8.483870967741934 -40.29411764705882 L25 -10 L25 10 L8.5 10 L8.5 -10 L8.326923076923077 -10 L8.282051282051281 -10.388888888888888 L7.649999999999999 -12.195652173913043 L6.652173913043478 -13.792452830188678 L5.292452830188679 -15.152173913043477 L3.695652173913043 -16.15 L1.8888888888888886 -16.78205128205128 L0 -17 L-1.8888888888888886 -16.78205128205128 L-3.695652173913043 -16.15 L-5.292452830188679 -15.152173913043477 L-6.652173913043478 -13.792452830188678 L-7.649999999999999 -12.195652173913043 L-8.282051282051281 -10.388888888888888 L-8.326923076923077 -10 L-8.5 -10 z"/>
</svg>